<?xml version="1.0" standalone="no"?>
<!DOCTYPE svg PUBLIC "-//W3C//DTD SVG 20010904//EN"
 "http://www.w3.org/TR/2001/REC-SVG-20010904/DTD/svg10.dtd">
<svg version="1.0" xmlns="http://www.w3.org/2000/svg"
 width="800.000000pt" height="729.000000pt" viewBox="0 0 800.000000 729.000000"
 preserveAspectRatio="xMidYMid meet">

<g transform="translate(0.000000,729.000000) scale(0.100000,-0.100000)"
fill="#000000" stroke="none">
<path d="M0 3645 l0 -3645 4000 0 4000 0 0 3645 0 3645 -4000 0 -4000 0 0
-3645z m3990 2915 c305 -72 542 -184 775 -369 79 -63 234 -215 286 -279 18
-24 46 -58 61 -75 15 -18 28 -35 28 -39 0 -4 6 -13 13 -20 15 -15 68 -97 120
-184 63 -104 147 -296 202 -457 24 -70 74 -290 85 -369 40 -299 31 -597 -26
-848 -49 -216 -97 -357 -180 -522 -251 -504 -663 -858 -1154 -995 -155 -43
-263 -56 -450 -55 -242 1 -410 35 -640 129 -124 51 -319 163 -396 226 -10 9
-37 30 -59 47 -225 177 -419 422 -563 710 -97 195 -127 274 -178 470 -125 484
-84 1055 108 1494 111 256 229 435 408 620 90 93 227 210 315 268 199 132 491
240 720 267 126 15 424 4 525 -19z m1868 -3694 c120 -61 292 -269 392 -476 45
-93 62 -116 102 -143 51 -32 127 -15 162 37 21 33 20 51 -6 97 -12 21 -18 42
-15 46 25 25 127 -152 127 -221 0 -45 -29 -97 -65 -116 -14 -7 -25 -16 -25
-19 0 -3 68 -5 150 -4 138 3 153 5 181 25 l30 23 39 -23 c32 -18 54 -22 120
-22 73 0 82 2 87 20 7 25 25 25 48 0 15 -17 31 -20 94 -20 l76 0 38 -54 c20
-30 37 -57 37 -60 0 -3 -22 -6 -48 -6 l-49 0 -7 -231 c-7 -241 -11 -264 -57
-321 l-22 -27 22 -36 c26 -44 26 -45 2 -45 -11 0 -54 34 -97 75 l-77 75 -33
-21 c-19 -11 -34 -24 -34 -27 0 -12 61 -186 77 -222 26 -57 82 -118 130 -141
110 -53 291 24 370 158 13 24 28 41 32 39 4 -3 22 -34 40 -71 l34 -66 -19 -35
c-28 -53 -116 -132 -181 -162 -78 -36 -163 -37 -213 -3 -98 67 -199 217 -271
399 l-38 97 -48 5 c-26 3 -64 14 -83 24 -51 28 -135 116 -164 174 -64 125 -11
201 154 222 79 11 110 38 110 101 l0 39 -201 0 -201 0 6 -22 c3 -13 1 -126 -5
-253 l-10 -230 -29 -43 c-35 -50 -37 -71 -9 -100 18 -21 19 -42 0 -42 -12 0
-102 71 -138 108 -32 34 -43 75 -23 87 19 12 10 21 -24 22 -44 1 -89 26 -148
81 -60 56 -78 88 -78 142 0 33 7 47 39 79 21 21 53 42 71 46 54 12 137 -4 171
-32 16 -14 32 -23 35 -21 8 9 10 163 2 166 -5 1 -105 2 -224 2 l-216 0 6 -25
c6 -25 -10 -408 -20 -472 -3 -18 -16 -46 -29 -62 -29 -34 -32 -67 -9 -100 10
-14 13 -26 7 -32 -11 -11 -128 74 -162 117 -29 37 -27 51 19 101 40 43 41 45
38 111 l-3 67 -56 8 c-74 12 -131 -5 -181 -52 -35 -32 -41 -45 -46 -89 -7 -76
17 -130 85 -192 52 -48 65 -80 31 -80 -21 0 -181 170 -212 225 -39 70 -47 160
-17 208 22 36 77 79 124 96 16 6 55 11 87 11 47 0 71 -7 123 -34 64 -33 65
-33 71 -12 3 11 6 63 6 114 l0 92 -269 0 c-165 0 -272 -4 -276 -10 -8 -12 -12
-77 -20 -318 l-7 -194 -34 -50 c-40 -59 -42 -74 -12 -105 16 -17 19 -26 11
-34 -16 -16 -159 92 -180 136 l-16 34 40 44 40 44 7 104 c6 108 9 222 7 299
l-1 45 -172 -2 c-95 -2 -179 -3 -186 -3 -9 0 -10 -5 -2 -19 5 -11 10 -40 10
-66 0 -43 1 -45 25 -39 36 9 106 -36 193 -123 91 -91 92 -106 22 -195 -69 -86
-77 -104 -61 -130 8 -13 9 -24 3 -30 -6 -6 -35 13 -80 51 -102 89 -103 97 -27
182 57 64 75 103 57 121 -15 15 -58 -4 -104 -46 -37 -34 -37 -35 -44 -135 -6
-94 -9 -105 -40 -149 -53 -74 -51 -76 74 -68 l108 6 42 -59 c22 -32 38 -61 35
-65 -4 -3 -31 -6 -61 -6 -85 0 -137 -32 -156 -97 -10 -31 31 -56 88 -55 59 2
148 37 183 72 l28 29 60 -45 c33 -25 62 -50 64 -55 6 -17 -32 -51 -84 -75 -63
-30 -152 -32 -210 -5 -106 48 -212 137 -249 210 -14 26 -15 39 -6 72 6 23 8
45 3 48 -4 4 -25 20 -46 35 -56 41 -66 69 -39 106 30 40 28 52 -5 43 -16 -5
-53 -8 -84 -8 -50 0 -61 4 -102 38 -52 43 -92 104 -101 157 -14 82 74 173 168
173 43 0 104 -26 145 -62 14 -12 28 -18 32 -14 9 9 15 191 6 199 -6 6 -489 6
-495 0 -2 -3 1 -13 7 -24 7 -13 7 -95 0 -262 -11 -256 -14 -271 -65 -333 -25
-30 -23 -48 9 -85 13 -14 17 -26 11 -32 -12 -12 -185 116 -191 142 -10 34 -35
29 -72 -14 -77 -92 -256 -259 -341 -319 -227 -161 -482 -244 -864 -285 -258
-27 -715 -5 -911 45 -22 6 -55 11 -72 11 -45 0 -42 18 5 23 20 2 12 3 -18 1
-30 -2 -65 -7 -77 -10 -13 -4 -23 -2 -23 4 0 6 10 13 23 15 12 2 -6 2 -40 -1
l-63 -5 1 29 c1 24 3 25 6 7 4 -21 23 -33 23 -15 0 4 10 8 21 9 27 2 33 8 26
27 -4 9 -17 13 -41 10 -26 -2 -36 1 -36 12 0 8 10 14 25 14 14 0 25 5 25 11 0
7 -7 8 -17 4 -34 -13 -73 -17 -73 -9 0 13 20 41 21 29 0 -5 4 -1 9 10 7 17 9
17 9 3 1 -14 9 -18 39 -17 36 1 37 1 10 11 -74 26 4 31 107 6 44 -11 55 -12
205 -33 498 -69 933 -59 1290 30 196 49 300 92 440 179 115 72 318 254 366
330 l19 29 -35 -6 c-28 -6 -42 -2 -86 27 -59 40 -116 105 -140 162 -13 30 -16
67 -15 157 l1 117 -37 0 c-34 0 -42 6 -80 55 -24 30 -43 57 -43 60 0 3 87 5
194 5 201 0 226 3 226 25 0 26 20 26 49 2 l29 -24 248 5 c226 4 251 6 270 23
26 25 65 24 97 -1 24 -19 40 -20 286 -20 144 0 261 2 261 4 0 3 -22 27 -49 54
-82 83 -79 156 10 236 62 56 146 86 242 86 93 0 184 -43 283 -134 86 -79 109
-120 99 -183 l-7 -45 -45 7 c-69 10 -96 23 -89 41 28 73 6 146 -55 176 -78 41
-236 -1 -307 -81 -29 -34 -47 -98 -35 -131 l8 -25 283 -3 282 -2 12 25 c14 31
19 31 48 0 l23 -25 253 0 c243 0 254 1 264 20 14 25 24 25 59 -1 16 -12 35
-19 43 -17 8 3 1 11 -18 21 -53 27 -148 160 -234 324 -67 130 -175 249 -270
298 -56 29 -173 32 -234 6 -27 -12 -50 -20 -51 -19 -9 12 -72 127 -77 140 -5
11 1 22 16 32 67 43 180 44 264 2z m-4993 -406 c3 -5 12 -7 20 -4 22 9 191
-78 269 -138 38 -29 83 -70 100 -91 27 -33 31 -47 31 -96 0 -58 15 -91 40 -91
8 0 15 -4 17 -8 2 -5 46 -5 98 1 l95 9 53 -58 c28 -31 52 -60 52 -63 0 -3 -31
-6 -69 -6 -70 0 -97 -9 -72 -25 12 -7 13 -54 7 -281 -7 -288 -9 -297 -60 -351
-35 -36 -42 -70 -21 -102 25 -37 2 -32 -31 7 -15 17 -30 32 -35 32 -4 0 -11 3
-15 8 -4 4 -2 7 4 7 7 0 12 4 12 9 0 5 -9 7 -20 4 -22 -6 -43 28 -22 35 8 2 9
9 2 22 -6 11 -9 45 -8 76 2 38 -2 59 -10 62 -7 2 -12 10 -12 18 0 8 -8 14 -17
14 -10 0 2 11 27 24 44 22 45 24 48 76 4 73 -2 94 -35 106 -23 9 -32 7 -47 -8
-11 -10 -31 -18 -45 -18 -18 0 -22 3 -13 9 11 7 11 9 -2 14 -11 4 -18 -1 -22
-17 -4 -17 -21 -31 -52 -44 -53 -23 -81 -62 -83 -114 -1 -21 -3 -26 -6 -13 -3
11 -9 24 -14 29 -17 19 50 106 82 106 27 0 32 17 15 52 -15 28 -14 32 0 43 15
10 15 13 2 17 -8 4 -29 5 -46 4 -17 -1 -29 2 -26 6 3 4 27 8 54 8 30 0 50 5
53 13 3 10 9 10 26 0 11 -7 29 -13 39 -13 10 0 33 -13 52 -30 33 -27 69 -39
71 -22 0 4 3 57 5 118 4 121 -2 137 -48 133 -12 -1 -78 -1 -145 -1 l-123 2 0
39 c0 29 -4 40 -17 43 -9 2 30 3 88 3 133 -1 147 4 141 44 -5 35 -19 45 -75
55 l-37 7 3 67 c4 58 1 71 -19 98 -13 17 -24 36 -24 42 0 7 -5 12 -11 12 -6 0
-39 13 -73 30 -33 16 -79 31 -101 32 -26 2 -39 8 -37 16 1 8 -13 12 -47 12
-28 0 -53 5 -57 12 -5 8 0 9 15 5 31 -8 58 2 39 14 -9 6 -7 9 9 9 12 0 24 -4
28 -10z m-148 -46 c-3 -3 -12 -4 -19 -1 -8 3 -5 6 6 6 11 1 17 -2 13 -5z m132
-10 c9 -8 -45 -2 -64 6 -14 7 -8 8 20 3 22 -3 42 -7 44 -9z m583 -40 c24 -25
44 -50 46 -54 3 -9 -88 -100 -100 -100 -5 0 -8 6 -8 14 0 8 -11 28 -25 44 -32
38 -31 42 5 74 17 14 30 36 30 47 0 12 2 21 5 21 2 0 24 -21 47 -46z m-504 25
c35 0 35 -1 12 -10 -30 -12 -110 -1 -89 12 8 5 20 7 27 4 8 -3 30 -5 50 -6z
m-101 -15 c-3 -3 -12 -4 -19 -1 -8 3 -5 6 6 6 11 1 17 -2 13 -5z m46 -21 c-7
-2 -21 -2 -30 0 -10 3 -4 5 12 5 17 0 24 -2 18 -5z m-148 -33 c3 -5 -1 -10
-10 -10 -9 0 -13 5 -10 10 3 6 8 10 10 10 2 0 7 -4 10 -10z m-40 -20 c-3 -5
-16 -15 -28 -21 -21 -10 -21 -9 2 10 25 23 36 27 26 11z m-87 -70 c-7 -11 -16
-20 -20 -20 -4 0 -13 -27 -20 -60 -6 -33 -16 -60 -20 -60 -21 0 1 85 34 133
22 31 45 38 26 7z m1333 -171 c42 -21 50 -21 373 -16 325 5 331 5 341 26 12
26 27 27 50 1 16 -18 31 -20 121 -20 l102 0 51 -57 c28 -31 51 -61 51 -65 0
-4 -31 -8 -70 -8 -69 0 -81 -5 -59 -27 8 -8 8 -79 0 -256 -6 -135 -11 -254
-11 -265 0 -11 -18 -44 -40 -73 -22 -30 -40 -59 -40 -65 0 -7 11 -26 25 -42
14 -17 25 -33 25 -36 0 -14 -27 -4 -51 17 -13 13 -29 26 -35 28 -28 12 -104
78 -120 104 -23 39 -32 45 -74 45 -31 0 -78 19 -162 65 -35 20 -115 101 -144
148 -14 20 -27 56 -30 80 -8 59 12 75 100 79 89 4 106 23 114 127 l5 71 -179
-2 -179 -3 -6 -44 c-7 -54 -48 -96 -82 -85 -25 8 -100 56 -105 67 -2 4 -16 7
-32 7 -25 0 -28 -4 -34 -49 -10 -75 -4 -81 70 -81 l64 0 45 -57 45 -58 -67 -3
c-54 -2 -74 -8 -100 -28 -52 -39 -42 -102 18 -123 69 -24 241 27 269 79 28 52
26 3 -6 -148 -6 -29 -40 -42 -122 -44 -59 -2 -76 2 -142 35 -155 77 -223 184
-175 277 9 17 20 30 25 30 18 0 10 47 -11 66 -37 33 -49 70 -49 146 0 108 39
176 109 188 39 7 58 2 122 -31z m-1361 -14 c0 -5 -5 -3 -10 5 -5 8 -10 20 -10
25 0 6 5 3 10 -5 5 -8 10 -19 10 -25z m125 -402 c-6 -286 -10 -333 -26 -333
-6 0 -8 3 -6 8 4 6 15 301 19 502 1 72 4 90 14 90 2 0 2 -120 -1 -267z m360
57 c18 -8 17 -9 -7 -9 -16 -1 -28 4 -28 9 0 12 8 12 35 0z m62 -77 c-3 -10 -5
-4 -5 12 0 17 2 24 5 18 2 -7 2 -21 0 -30z m-44 -20 c-7 -2 -19 -2 -25 0 -7 3
-2 5 12 5 14 0 19 -2 13 -5z m207 -183 c0 -16 -7 -20 -32 -20 -18 0 -42 -2
-53 -4 -11 -2 -14 -1 -7 1 6 3 12 11 12 19 0 11 -10 13 -42 9 -36 -3 -38 -3
-13 4 17 5 54 9 83 10 46 1 52 -1 52 -19z m-3 -126 c-3 -3 -12 -4 -19 -1 -8 3
-5 6 6 6 11 1 17 -2 13 -5z m-623 -29 c-9 -14 -18 -25 -20 -25 -2 0 2 11 8 25
6 14 15 25 20 25 5 0 1 -11 -8 -25z m811 -145 c3 -5 -1 -10 -10 -10 -9 0 -13
5 -10 10 3 6 8 10 10 10 2 0 7 -4 10 -10z m-255 -100 c11 -8 7 -9 -15 -4 -37
8 -45 14 -19 14 10 0 26 -5 34 -10z m17 -36 c-3 -3 -12 -4 -19 -1 -8 3 -5 6 6
6 11 1 17 -2 13 -5z m133 -4 c0 -5 -7 -7 -15 -4 -8 4 -15 8 -15 10 0 2 7 4 15
4 8 0 15 -4 15 -10z m47 -6 c-3 -3 -12 -4 -19 -1 -8 3 -5 6 6 6 11 1 17 -2 13
-5z m-50 -130 c-3 -3 -12 -4 -19 -1 -8 3 -5 6 6 6 11 1 17 -2 13 -5z"/>
<path d="M3432 6534 c-433 -63 -823 -296 -1122 -670 -71 -89 -200 -299 -230
-374 -7 -19 -17 -39 -21 -45 -16 -23 -68 -167 -112 -310 -29 -93 -56 -249 -72
-411 -13 -132 -14 -191 -6 -330 10 -154 45 -394 70 -469 5 -16 17 -57 27 -90
44 -151 130 -348 211 -484 25 -42 51 -86 57 -97 61 -114 293 -368 442 -486
230 -182 502 -308 789 -364 129 -26 441 -26 585 0 750 133 1335 787 1476 1651
26 158 26 555 0 710 -42 255 -105 454 -210 670 -200 409 -504 731 -868 919
-317 164 -684 229 -1016 180z m499 -234 c395 -69 702 -252 997 -595 69 -79
166 -231 222 -345 28 -58 57 -116 64 -130 23 -42 104 -298 130 -410 22 -92 46
-244 46 -291 0 -10 -15 -20 -40 -28 -49 -15 -61 -36 -85 -158 -18 -91 -18 -94
1 -140 15 -37 30 -53 63 -72 42 -23 47 -23 84 -10 60 21 82 57 82 134 0 71
-20 105 -62 105 -24 0 -31 -14 -13 -25 6 -3 10 -24 10 -46 0 -21 -4 -39 -10
-39 -5 0 -10 5 -10 11 0 7 -12 9 -33 5 -41 -8 -65 14 -74 67 -4 26 0 45 16 70
28 45 60 53 111 27 107 -55 132 -211 48 -306 -24 -27 -40 -35 -79 -40 -32 -4
-49 -11 -49 -20 0 -8 -7 -14 -15 -14 -9 0 -15 9 -15 24 0 14 -10 30 -25 40
-69 45 -81 149 -37 311 38 142 41 162 42 296 1 149 -26 278 -95 449 -93 232
-107 248 -275 317 -19 8 -29 25 -43 74 -48 164 -151 320 -270 405 -28 21 -54
41 -57 44 -13 15 -115 73 -206 119 -356 178 -755 204 -1132 75 -220 -76 -338
-180 -427 -377 l-37 -83 -79 -12 c-137 -20 -176 -47 -261 -182 -156 -246 -210
-444 -194 -710 4 -63 11 -137 16 -165 32 -180 33 -194 15 -243 -17 -45 -72
-108 -84 -96 -3 3 4 13 15 22 46 38 59 73 57 157 -2 119 -53 317 -73 285 -4
-7 -10 15 -14 48 -7 60 18 202 35 202 3 0 10 21 14 46 18 120 114 344 210 488
39 59 250 296 295 331 14 11 32 27 40 36 65 70 270 202 385 248 44 17 87 36
96 40 25 14 220 61 290 70 120 16 291 12 410 -9z m-360 -104 c63 -26 96 -88
64 -120 -9 -9 -20 -16 -25 -16 -15 0 -70 70 -76 98 -3 15 -7 33 -10 40 -4 16
6 15 47 -2z m219 -10 c0 -33 -41 -90 -68 -94 -24 -4 -29 7 -10 26 9 9 8 12 -5
12 -24 0 -21 14 12 49 36 38 71 42 71 7z m230 -78 c0 -33 -19 -78 -34 -78 -36
1 -50 41 -31 87 25 59 36 68 51 41 8 -13 13 -35 14 -50z m-90 -23 c9 -28 9
-38 -3 -49 -25 -26 -64 15 -90 96 -9 26 3 28 43 8 27 -14 42 -30 50 -55z
m-603 35 c48 -17 80 -89 51 -118 -15 -15 -44 1 -61 36 -14 26 -30 92 -23 92 2
0 16 -5 33 -10z m183 6 c0 -25 -26 -67 -45 -72 -44 -11 -61 22 -28 58 13 15
73 27 73 14z m728 -41 c8 -7 -30 -65 -47 -75 -33 -17 -65 -12 -77 14 -21 45
20 78 86 68 19 -2 36 -6 38 -7z m-477 -26 c18 -9 20 -17 14 -52 -4 -23 -12
-46 -17 -52 -7 -7 -8 0 -4 21 l7 31 -35 -11 c-39 -12 -44 -27 -21 -66 21 -36
18 -49 -5 -21 -24 28 -25 59 -6 98 8 15 17 36 20 46 6 20 19 21 47 6z m-157
-24 c17 -13 17 -18 6 -67 -7 -29 -35 -116 -63 -193 -34 -95 -51 -162 -55 -207
-6 -81 22 -290 50 -371 11 -31 18 -62 16 -68 -8 -23 -41 46 -59 122 -27 114
-69 191 -88 161 -4 -7 -18 -13 -31 -14 -20 -3 -24 2 -26 25 -2 19 2 27 14 27
19 0 -34 42 -92 72 -58 30 -135 93 -162 134 -36 52 -24 51 27 -4 50 -52 149
-127 149 -112 0 5 -14 38 -32 72 -34 67 -53 188 -29 188 7 0 11 -20 11 -50 0
-95 101 -252 192 -299 37 -19 43 -10 32 42 -6 25 -7 55 -2 72 12 39 15 235 6
303 -4 29 -17 71 -28 94 -18 39 -18 40 -1 24 28 -25 40 -60 54 -160 l13 -89
32 80 32 81 -19 44 c-10 23 -21 52 -25 63 -7 19 -8 19 -17 3 -6 -10 -14 -18
-19 -18 -16 0 -11 37 5 44 20 7 42 -18 56 -64 14 -47 21 -49 37 -15 18 38 15
62 -8 68 -22 6 -28 27 -7 27 6 0 20 -7 31 -15z m744 -30 c2 -2 -4 -17 -12 -33
-19 -37 -53 -62 -84 -62 -27 0 -41 28 -21 42 10 7 8 8 -8 5 -31 -7 -29 12 4
41 23 19 34 22 72 16 25 -4 47 -8 49 -9z m-1174 -10 c44 -29 59 -115 20 -115
-23 0 -54 38 -54 66 0 14 -5 34 -10 45 -14 24 10 26 44 4z m886 2 c0 -22 -31
-57 -50 -57 -15 0 -19 6 -18 28 1 15 3 30 5 35 7 13 63 8 63 -6z m-725 -66
c-6 -28 -46 -71 -66 -71 -5 0 -9 9 -9 20 0 11 -3 19 -7 19 -36 -6 -2 48 42 67
37 16 49 5 40 -35z m586 -11 c5 0 13 9 17 21 6 14 8 2 8 -34 -1 -31 2 -58 6
-62 3 -3 24 3 46 14 40 20 72 58 72 86 0 8 4 15 10 15 5 0 8 -6 6 -12 -3 -7
-7 -26 -10 -41 -5 -20 -25 -40 -76 -73 -39 -25 -77 -55 -85 -67 -42 -65 -75
-254 -56 -325 16 -56 -16 -218 -60 -303 -68 -134 -83 -268 -54 -463 17 -114
18 -136 7 -136 -5 0 -21 66 -37 148 -15 81 -34 170 -41 197 -24 84 -13 121
102 346 25 49 54 193 54 269 0 65 -5 85 -34 147 -35 72 -66 177 -66 216 1 12
7 36 14 52 13 29 14 27 9 -26 -3 -31 -1 -65 5 -75 9 -17 11 -16 17 11 12 56
28 87 53 103 23 15 26 15 43 -6 14 -18 16 -29 8 -55 -11 -39 -52 -77 -83 -77
-12 0 -25 -3 -28 -6 -6 -6 34 -111 54 -144 10 -16 15 -9 34 51 12 38 34 86 49
105 22 29 26 43 21 72 -3 20 -17 46 -31 59 -14 13 -25 29 -25 36 0 7 10 0 21
-15 11 -16 25 -28 30 -28z m504 -13 c20 -59 16 -90 -16 -130 -26 -34 -52 -34
-67 -2 -21 45 -14 95 19 147 17 26 34 46 38 43 4 -2 16 -28 26 -58z m-262 20
c34 -52 20 -83 -23 -49 -29 23 -36 72 -10 72 10 0 25 -11 33 -23z m-1158 1
c24 -11 58 -57 60 -83 2 -17 -16 -35 -34 -35 -22 0 -62 54 -71 96 -9 38 0 42
45 22z m111 -19 c42 -25 55 -66 28 -86 -16 -12 -21 -10 -45 14 -30 31 -49 93
-28 93 6 0 27 -9 45 -21z m427 7 c3 -8 3 -17 0 -20 -7 -7 -33 13 -33 25 0 15
27 10 33 -5z m-93 -38 c0 -11 -49 23 -50 35 0 4 11 0 25 -9 14 -9 25 -20 25
-26z m-52 -9 c3 -16 -23 -57 -31 -49 -3 3 -2 20 0 38 5 32 25 40 31 11z m279
-46 c5 -54 -13 -90 -40 -80 -29 11 -32 55 -7 104 27 53 41 46 47 -24z m608 32
c29 -28 32 -53 9 -62 -20 -8 -42 15 -53 55 -12 40 8 44 44 7z m-965 -42 c24
-30 23 -56 -2 -61 -12 -2 -23 10 -37 39 -25 52 -25 49 -2 49 11 0 29 -12 41
-27z m817 -15 c-3 -7 -5 -2 -5 12 0 14 2 19 5 13 2 -7 2 -19 0 -25z m74 -14
c16 -30 19 -129 5 -158 -9 -17 -6 -19 25 -12 19 3 42 16 51 29 14 17 18 19 18
6 0 -23 -16 -34 -75 -54 -28 -9 -56 -24 -62 -35 -10 -15 -8 -19 12 -24 14 -4
29 -14 34 -24 15 -27 17 -85 4 -89 -16 -6 -67 73 -59 92 3 8 1 15 -4 15 -21 0
-80 -109 -106 -195 -31 -105 -51 -136 -98 -159 -20 -9 -38 -21 -41 -26 -3 -6
-16 -15 -28 -22 -21 -11 -21 -10 -6 13 9 13 33 35 53 49 21 14 46 40 58 58 22
35 48 122 48 163 0 38 -47 149 -75 179 -16 17 -27 42 -30 66 -2 21 -2 30 1 19
11 -37 36 -85 45 -85 5 0 10 17 10 38 1 20 5 51 9 67 6 24 8 17 9 -34 1 -64
35 -201 50 -201 4 0 24 24 44 53 26 38 37 64 37 91 0 42 -22 100 -42 112 -20
13 -48 56 -47 74 0 13 1 13 6 0 11 -30 45 -70 54 -65 5 4 9 18 10 33 0 25 38
-102 42 -140 2 -26 15 -22 32 12 20 38 19 62 -4 86 -30 33 -46 67 -32 72 6 2
9 8 5 13 -3 5 3 9 14 9 10 0 25 -12 33 -26z m-1192 7 c24 -15 23 -49 -1 -66
-29 -20 -51 -19 -78 3 l-22 18 32 27 c34 29 47 32 69 18z m1009 -15 c5 -23
-12 -40 -32 -33 -13 5 -14 11 -4 32 13 28 31 28 36 1z m-867 4 c10 -6 19 -16
19 -22 0 -7 -5 -6 -15 2 -12 10 -15 9 -15 -7 0 -20 -18 -43 -33 -43 -5 0 -6
12 -2 28 4 15 8 33 8 40 0 15 12 15 38 2z m1342 4 c10 -10 -14 -64 -33 -74
-28 -15 -30 -13 -30 23 0 25 6 37 23 45 27 13 32 14 40 6z m117 -36 c33 -73
22 -159 -25 -198 -14 -12 -18 -12 -26 1 -7 12 -9 12 -9 -1 0 -12 -3 -12 -16 2
-9 9 -19 38 -22 64 -4 41 0 57 29 111 19 35 38 63 42 63 4 0 17 -19 27 -42z
m-1180 -11 c8 -14 11 -29 7 -33 -10 -10 -33 15 -42 45 -10 32 15 24 35 -12z
m884 -2 c5 -14 -18 -45 -34 -45 -16 0 -21 19 -10 40 13 23 35 26 44 5z m-921
-86 c19 -30 37 -65 41 -79 7 -24 6 -23 -21 7 -15 17 -37 34 -49 37 -22 7 -74
56 -59 56 5 0 21 -12 37 -27 37 -36 45 -24 19 30 -11 24 -21 50 -20 58 0 8 4
5 9 -7 4 -11 24 -45 43 -75z m338 45 l22 -23 -27 -12 c-20 -9 -32 -9 -51 -1
-26 12 -34 32 -12 32 8 0 7 4 -3 10 -12 8 -13 11 -1 19 19 12 46 3 72 -25z
m-777 -5 c28 -22 33 -48 14 -67 -17 -17 -44 2 -57 39 -6 18 -11 36 -11 40 0
16 27 10 54 -12z m346 0 c0 -6 -4 -7 -10 -4 -5 3 -10 11 -10 16 0 6 5 7 10 4
6 -3 10 -11 10 -16z m1090 -79 c4 0 15 9 25 20 10 11 23 20 28 20 6 0 1 -9
-12 -21 -30 -29 -41 -61 -41 -125 l0 -55 40 42 c36 38 43 41 76 36 49 -8 64
-24 18 -19 -67 8 -94 -25 -165 -200 -16 -42 -42 -88 -55 -102 -38 -37 -108
-57 -219 -62 -103 -5 -130 -14 -167 -58 -20 -25 -26 -68 -6 -48 16 16 57 15
108 -3 23 -8 53 -15 67 -15 15 0 22 -4 18 -11 -4 -6 1 -17 11 -25 18 -14 18
-14 0 -7 -17 6 -18 3 -12 -30 9 -48 -17 -52 -33 -6 -16 45 -14 51 12 44 20 -7
21 -6 6 10 -10 10 -39 19 -75 22 -54 5 -61 3 -83 -21 -17 -18 -27 -44 -33 -87
-5 -38 -19 -80 -36 -108 -39 -64 -82 -164 -82 -190 0 -11 -4 -21 -9 -21 -18 0
-17 113 1 148 19 37 47 128 78 251 27 108 42 135 92 171 39 29 46 30 142 30
64 1 107 5 117 13 30 22 49 76 56 152 3 41 10 75 15 75 13 0 3 -163 -11 -189
-13 -24 -14 -31 -2 -31 22 0 59 55 81 122 22 65 25 89 25 218 -1 113 1 136 8
103 6 -24 13 -43 17 -43z m-785 -2 c-7 -62 10 -113 93 -273 48 -93 50 -100 36
-126 -22 -44 -31 -42 -32 7 -2 62 -36 126 -93 171 -46 37 -100 113 -80 113 5
0 12 -8 15 -18 4 -10 27 -38 53 -63 31 -30 45 -38 40 -24 -3 11 -19 58 -35
105 -17 47 -27 90 -22 95 4 6 10 22 14 38 11 46 18 30 11 -25z m509 16 c6 -15
-2 -44 -13 -44 -21 1 -56 53 -46 70 7 12 52 -8 59 -26z m-1027 0 c-5 -5 -57
13 -57 20 0 3 14 0 31 -6 16 -6 28 -12 26 -14z m467 -10 c3 -8 2 -12 -4 -9 -6
3 -10 10 -10 16 0 14 7 11 14 -7z m143 -10 c5 -15 -24 -44 -43 -44 -14 0 -20
41 -7 54 10 10 46 3 50 -10z m221 4 c7 -7 12 -28 12 -47 0 -30 -2 -33 -14 -21
-22 24 -38 80 -22 80 6 0 17 -5 24 -12z m-959 -12 c15 -18 3 -46 -20 -46 -25
0 -35 26 -19 45 15 19 24 19 39 1z m1361 -5 c17 -33 12 -96 -9 -115 -18 -16
-20 -16 -35 6 -20 29 -20 43 2 89 19 44 27 47 42 20z m400 -17 c0 -26 -8 -43
-30 -66 -33 -32 -55 -33 -54 0 0 13 -4 18 -13 15 -19 -7 -16 11 6 38 15 18 46
35 89 48 1 1 2 -15 2 -35z m-1610 7 c0 -24 -15 -35 -36 -27 -12 4 -13 10 -4
26 14 26 40 26 40 1z m-282 -13 c19 -19 14 -46 -13 -64 -21 -14 -30 -14 -55
-4 -37 15 -38 32 -4 59 30 24 54 27 72 9z m339 -4 c9 -24 -14 -64 -37 -64 -16
0 -19 5 -16 26 9 47 41 70 53 38z m-137 -23 c6 -16 19 -37 28 -48 9 -10 34
-39 55 -65 46 -57 227 -178 227 -151 0 3 -14 28 -31 54 -20 32 -29 57 -27 76
4 26 5 26 17 -14 17 -51 77 -125 157 -192 99 -83 165 -214 198 -391 9 -47 23
-111 32 -144 19 -75 12 -84 -11 -14 -10 29 -37 98 -60 153 -23 55 -57 146 -75
202 -28 89 -39 109 -79 149 -25 25 -77 62 -116 81 -38 19 -95 50 -126 69 -31
19 -59 34 -62 34 -3 0 -7 -10 -9 -22 -4 -30 -42 -32 -46 -2 -2 15 4 23 18 27
12 3 19 10 16 15 -9 14 -114 62 -136 62 -11 0 -20 4 -20 8 0 5 -22 23 -50 41
-79 51 -66 51 41 -2 54 -27 104 -47 110 -45 7 2 1 16 -13 33 -32 38 -71 115
-59 115 5 0 14 -13 21 -29z m180 -66 c-7 -14 -17 -25 -21 -25 -6 0 -6 52 0 80
1 2 9 -3 18 -13 15 -14 15 -20 3 -42z m1620 13 c0 -85 -27 -142 -73 -153 -23
-6 -27 -4 -27 14 0 13 -5 19 -13 15 -11 -4 -12 6 -7 48 6 44 13 57 45 85 54
47 75 44 75 -9z m-1062 -4 c29 -29 33 -37 21 -45 -40 -25 -102 6 -95 49 2 15
5 28 5 30 4 12 40 -5 69 -34z m227 -4 c18 -30 -25 -71 -51 -49 -18 15 -18 24
2 43 18 18 40 21 49 6z m-1167 -32 c2 -17 -4 -34 -17 -47 -25 -25 -41 -27 -41
-6 0 8 5 15 10 15 6 0 10 7 10 15 0 8 -5 15 -10 15 -6 0 -5 8 2 20 17 28 42
21 46 -12z m1794 -5 c22 -20 23 -37 2 -57 -21 -21 -51 -20 -80 3 l-24 19 31
26 c36 30 46 32 71 9z m-1372 -38 c19 -22 20 -26 5 -15 -24 18 -35 32 -35 44
0 5 1 7 3 5 1 -2 13 -17 27 -34z m1220 15 c13 -13 20 -33 20 -60 0 -22 4 -40
9 -40 5 0 12 -23 16 -50 8 -57 19 -57 36 1 8 26 16 36 22 30 11 -11 -13 -84
-44 -137 -24 -40 -24 -44 5 -44 32 0 75 36 92 77 8 18 18 33 23 33 4 0 16 19
25 43 10 23 20 37 22 31 6 -14 -29 -97 -57 -135 l-20 -29 43 -1 c32 -1 37 -3
19 -8 -21 -6 -22 -8 -8 -19 19 -16 62 -96 47 -87 -6 4 -22 24 -36 46 -29 47
-55 52 -49 10 4 -34 -16 -66 -45 -74 -19 -5 -20 -2 -16 31 2 21 7 45 11 54 6
15 1 15 -54 -3 -109 -33 -160 -60 -191 -99 -17 -21 -30 -42 -30 -48 0 -5 -15
-24 -34 -43 l-34 -33 51 -18 c107 -37 185 -10 232 81 19 36 24 41 25 23 0 -43
-47 -106 -105 -141 -17 -10 -11 -11 34 -8 72 6 101 36 101 105 0 26 5 54 11
62 8 11 9 5 6 -24 -3 -31 0 -40 14 -43 17 -5 17 -6 -2 -26 -29 -32 -25 -47 14
-41 69 11 77 15 91 42 9 15 15 20 16 12 0 -9 -7 -25 -15 -37 -14 -19 -13 -22
10 -37 14 -9 25 -21 25 -27 0 -7 -10 -5 -25 5 -33 22 -104 20 -165 -4 -71 -28
-111 -25 -233 15 l-105 35 -79 -15 c-43 -8 -99 -15 -125 -15 -36 0 -60 -8 -98
-31 -57 -35 -71 -33 -45 8 39 60 65 70 197 78 127 8 175 32 216 110 32 59 51
76 117 107 51 23 91 59 101 92 9 29 -6 126 -20 126 -11 0 -42 44 -58 81 -8 20
1 59 13 59 5 0 18 -9 29 -20z m-1572 -73 c-5 -50 -25 -43 -26 9 -1 40 1 44 14
33 9 -7 14 -25 12 -42z m1327 22 c9 -17 14 -33 11 -36 -4 -4 -36 49 -36 62 0
13 11 2 25 -26z m-1501 5 c22 -8 20 -37 -3 -58 -24 -22 -70 -18 -85 7 -20 33
42 69 88 51z m1457 -27 c27 -17 42 -52 35 -81 -7 -30 -25 -32 -65 -11 -26 13
-61 75 -61 106 0 13 63 4 91 -14z m-1307 -60 c71 -74 107 -101 156 -115 19 -5
43 -13 53 -17 29 -12 19 9 -23 51 -22 21 -38 44 -36 50 3 6 -2 24 -10 39 -16
32 -17 35 -6 35 4 0 14 -16 21 -36 15 -41 117 -154 168 -185 34 -21 110 -125
99 -136 -12 -12 -36 8 -50 41 -15 37 -89 91 -156 115 -19 7 -89 15 -155 18
-66 3 -127 10 -135 15 -11 7 -8 8 13 5 19 -3 27 0 27 11 0 10 3 12 13 4 10 -8
72 -17 99 -13 5 1 -15 25 -42 54 -28 28 -66 69 -86 90 -19 20 -30 37 -23 37 6
0 39 -29 73 -63z m1100 41 c8 -13 7 -21 -1 -29 -15 -15 -38 1 -46 32 -4 16 -1
20 15 17 12 -2 26 -11 32 -20z m-360 -19 c32 -26 33 -36 1 -51 -35 -16 -75 3
-75 35 0 43 31 50 74 16z m864 -21 c21 -21 13 -48 -20 -68 -29 -18 -30 -20
-10 -20 30 0 29 -30 -3 -64 -24 -26 -72 -34 -68 -11 1 6 -3 15 -9 22 -7 9 -2
20 17 38 21 18 25 28 17 38 -8 9 -4 21 14 45 27 34 43 39 62 20z m-1710 -24
c3 -24 -33 -74 -54 -74 -21 0 -17 14 11 40 30 28 33 45 5 30 -22 -12 -27 -1
-8 18 18 18 42 10 46 -14z m216 11 c11 -8 15 -15 10 -15 -6 0 -19 7 -30 15
-10 8 -14 14 -9 14 6 0 19 -6 29 -14z m1656 -25 c0 -13 -1 -13 -10 0 -5 8 -10
22 -10 30 0 13 1 13 10 0 5 -8 10 -22 10 -30z m240 15 c0 -53 -52 -115 -97
-115 -53 0 -49 85 6 115 36 20 91 19 91 0z m-1655 -30 c29 -28 31 -38 10 -55
-12 -10 -20 -7 -45 18 -16 17 -30 38 -30 46 0 24 38 19 65 -9z m135 -48 c0
-23 -17 -47 -32 -47 -11 0 -10 13 2 44 12 32 30 34 30 3z m-662 -20 c14 -16
11 -57 -3 -57 -16 1 -45 26 -38 33 3 4 0 13 -7 22 -11 13 -9 15 13 15 13 0 29
-6 35 -13z m122 -56 c0 -21 -19 -41 -39 -41 -12 0 -11 3 2 18 10 10 17 26 17
36 0 9 5 14 10 11 6 -3 10 -14 10 -24z m630 14 c0 -18 -36 -39 -45 -26 -3 5
-1 12 5 16 6 4 8 11 5 16 -4 5 3 9 14 9 12 0 21 -7 21 -15z m796 -17 c25 -26
34 -148 11 -148 -23 0 -74 64 -81 103 -12 66 28 92 70 45z m669 0 c25 -30 26
-33 9 -45 -24 -18 -37 -16 -66 7 -19 14 -24 26 -21 45 7 36 44 33 78 -7z
m-1979 -5 c-7 -28 -39 -63 -58 -63 -6 0 -8 9 -5 20 3 11 1 20 -4 20 -15 0 2
27 24 38 39 19 50 15 43 -15z m92 15 c30 -30 -2 -108 -43 -108 -13 0 -14 4 -4
21 7 15 8 24 0 32 -7 7 -5 19 7 39 18 31 23 33 40 16z m1303 -61 c-13 -13 -15
15 -3 53 7 24 7 23 10 -9 2 -18 -1 -38 -7 -44z m-984 -14 c34 -35 32 -45 -2
-15 -24 20 -65 77 -64 89 0 4 8 -3 17 -17 9 -14 31 -40 49 -57z m1458 47 c31
-59 11 -105 -27 -61 -21 25 -32 61 -19 61 6 0 8 7 5 15 -11 28 25 16 41 -15z
m-693 -4 c4 -6 8 -19 8 -29 0 -30 -30 -16 -46 21 -13 32 -13 33 9 26 12 -4 25
-12 29 -18z m-660 -166 c18 -34 35 -52 76 -73 52 -28 85 -73 107 -147 9 -29
87 -203 95 -210 15 -15 52 -103 66 -160 9 -36 21 -71 27 -79 10 -12 9 -13 -9
-3 -11 6 -37 48 -59 98 -22 48 -55 117 -74 153 -20 36 -48 92 -62 124 -46 103
-80 141 -159 181 -85 42 -133 46 -168 14 l-25 -23 12 23 c17 33 8 37 -39 18
-54 -22 -62 -20 -23 5 24 15 50 21 98 21 36 0 65 2 65 4 0 2 -21 16 -47 31
-42 25 -57 28 -123 26 -115 -4 -258 -28 -281 -49 -10 -9 -22 -14 -25 -11 -4 3
10 16 31 28 l37 22 -63 23 c-35 13 -70 24 -77 24 -16 0 -92 70 -92 84 0 6 11
-1 25 -17 25 -26 85 -63 85 -52 0 4 -5 16 -12 28 -9 17 -3 15 25 -10 56 -49
102 -59 201 -45 147 21 207 17 293 -23 42 -19 77 -35 79 -35 6 0 -16 63 -29
84 -8 11 -16 35 -20 51 -3 17 -8 39 -11 50 -4 11 7 -9 24 -45 16 -36 40 -85
52 -110z m-292 129 c0 -19 -21 -49 -34 -49 -12 0 -12 6 -3 30 11 28 37 42 37
19z m-446 -15 c23 -22 20 -41 -9 -60 -28 -18 -70 -13 -79 11 -6 16 40 65 61
65 6 0 19 -7 27 -16z m1721 -23 c13 -42 -23 -101 -62 -101 -14 0 -8 61 9 98
14 27 44 29 53 3z m284 -19 c13 -31 4 -68 -24 -95 -29 -30 -38 -20 -33 37 4
51 20 86 38 86 4 0 13 -13 19 -28z m-691 -22 c-3 -24 -32 -49 -44 -37 -4 3 -1
13 6 22 7 9 10 18 7 22 -4 3 -2 12 5 20 15 18 31 2 26 -27z m-1330 -85 c-10
-23 -47 -50 -56 -41 -3 4 5 21 18 38 15 21 19 33 12 36 -7 2 -10 8 -7 12 3 5
14 2 24 -7 15 -12 17 -21 9 -38z m136 11 c-2 -40 -22 -66 -52 -66 -12 0 -12 4
3 20 13 15 15 23 7 33 -18 21 -3 59 22 55 18 -3 21 -9 20 -42z m1980 13 c7
-34 -11 -80 -33 -87 -11 -4 -12 2 -7 24 5 21 4 25 -3 14 -19 -28 -22 -2 -4 39
21 49 38 53 47 10z m157 -22 c-10 -44 -30 -73 -58 -86 -37 -17 -57 -13 -69 12
-23 51 27 106 97 107 36 0 37 0 30 -33z m-1845 -23 c8 -32 -23 -77 -56 -82
-21 -4 -22 -1 -15 34 10 53 22 74 45 74 13 0 22 -9 26 -26z m-141 -54 c18 -35
20 -90 3 -90 -14 0 -58 59 -58 78 0 16 17 15 23 0 2 -7 2 -1 0 15 -6 36 13 35
32 -3z m-107 -9 c6 -39 -6 -67 -33 -79 -14 -7 -30 -12 -34 -12 -8 0 1 73 14
103 11 26 49 18 53 -12z m1312 -15 c62 -13 63 -14 22 -15 -48 -1 -48 -12 2
-42 17 -10 24 -19 16 -19 -8 0 -40 16 -70 35 -60 39 -96 46 -85 18 13 -35 17
-73 8 -73 -14 0 -33 22 -33 40 0 9 -6 24 -13 34 -13 18 -15 17 -53 -2 -47 -24
-115 -95 -142 -149 -10 -21 -22 -67 -26 -102 -7 -71 -9 -76 -27 -66 -21 13 -4
135 29 207 30 67 66 103 132 131 44 19 154 20 240 3z m-1025 -26 c7 -23 -13
-69 -37 -84 -23 -14 -34 -1 -17 20 11 13 11 18 2 21 -7 3 -13 9 -13 14 0 6 5
7 12 3 6 -4 8 -3 5 4 -11 16 3 42 23 42 10 0 21 -9 25 -20z m91 -7 c16 -21 18
-72 4 -108 -12 -31 -30 -24 -30 10 0 13 -4 27 -10 30 -5 3 -10 13 -10 21 0 9
5 12 12 8 8 -5 9 2 5 24 -7 36 7 43 29 15z m1504 -15 c20 -34 28 -108 11 -108
-14 0 -49 52 -57 85 -5 22 -4 26 6 20 9 -5 11 -4 6 3 -7 11 0 32 10 32 2 0 13
-15 24 -32z m101 2 c10 -14 21 -37 25 -52 6 -26 4 -28 -25 -28 -24 0 -36 8
-56 37 -27 40 -32 59 -13 47 8 -5 9 -2 5 10 -11 28 42 16 64 -14z m-291 3 c29
-20 27 -18 114 -102 72 -69 83 -102 50 -150 -14 -19 -23 -22 -50 -18 -33 6
-33 5 -60 -66 -35 -93 -187 -405 -214 -439 -30 -38 -108 -53 -208 -39 -93 13
-152 29 -152 41 0 10 22 41 294 420 154 215 158 221 146 250 -15 36 -7 73 22
100 26 24 27 24 58 3z m-252 -5 c13 -13 17 -68 4 -68 -17 0 -32 25 -32 52 0
30 9 35 28 16z m-2165 -79 c31 -34 36 -86 11 -124 -20 -31 -55 -34 -47 -5 3
11 11 20 19 20 7 0 16 5 20 11 5 8 -4 10 -32 6 -21 -3 -32 -3 -23 -1 9 3 24
20 34 38 20 37 15 49 -33 75 -26 14 -31 -3 -4 -18 18 -11 3 -15 -21 -5 -9 3
-13 13 -10 25 8 28 49 18 86 -22z m2131 2 c13 -14 16 -33 14 -71 l-3 -52 -27
21 c-41 33 -52 121 -15 121 8 0 22 -9 31 -19z m-2338 -61 c-34 -41 -42 -89
-23 -147 18 -53 15 -67 -4 -31 -7 12 -13 50 -14 83 0 47 5 67 23 93 13 17 28
32 34 32 5 0 -2 -14 -16 -30z m1755 -198 c48 -100 119 -191 169 -217 15 -8 51
-17 81 -20 127 -14 139 -16 133 -27 -13 -20 -190 -2 -248 26 -64 31 -73 39
-122 106 -45 60 -65 104 -62 135 1 11 -2 37 -6 58 -12 62 7 42 55 -61z m-1736
-22 c3 -5 1 -10 -4 -10 -6 0 -11 5 -11 10 0 6 2 10 4 10 3 0 8 -4 11 -10z
m173 -62 c-9 -7 -18 -22 -21 -33 -3 -18 -5 -18 -11 -3 -9 19 11 47 33 48 12 0
12 -2 -1 -12z m1536 -41 c22 -60 20 -91 -10 -126 -24 -29 -30 -31 -92 -30
l-67 0 37 14 c68 25 98 68 98 139 0 58 12 59 34 3z m-54 -26 c0 -28 -49 -76
-90 -89 -58 -17 -355 -28 -390 -14 -21 9 -13 11 45 11 39 1 95 8 125 16 30 8
84 15 120 15 68 0 133 22 159 53 14 18 31 22 31 8z m1207 -88 c4 -32 8 -170 8
-308 0 -272 -8 -329 -66 -507 -74 -226 -213 -422 -392 -548 -79 -57 -224 -124
-327 -152 -75 -20 -107 -22 -280 -22 -269 0 -396 26 -575 117 -271 137 -452
380 -554 742 -27 96 -50 229 -60 340 -13 156 -21 325 -16 325 3 0 14 -19 25
-42 49 -104 212 -280 370 -400 208 -157 472 -294 747 -387 86 -29 217 -61 252
-61 21 0 31 -5 31 -15 0 -8 -1 -15 -3 -15 -1 0 -47 -12 -102 -26 -85 -22 -126
-26 -275 -29 -96 -2 -205 1 -241 7 -134 22 -157 -16 -66 -108 64 -65 178 -123
298 -153 95 -24 277 -30 364 -12 259 52 469 239 606 539 22 48 45 97 51 109
16 33 7 36 -41 12 -79 -38 -174 -52 -321 -46 -118 4 -148 9 -230 37 -76 25
-309 136 -355 169 -23 17 -186 81 -260 102 -70 21 -101 24 -252 24 -95 0 -173
3 -173 8 0 4 4 7 9 7 4 0 23 13 41 29 47 41 165 96 238 111 96 20 191 6 457
-66 50 -13 162 -40 250 -61 147 -33 172 -36 315 -37 136 0 163 3 219 23 153
54 258 167 276 299 4 28 11 52 15 52 5 0 12 -26 17 -57z"/>
<path d="M3160 5936 c0 -2 7 -9 15 -16 9 -7 15 -8 15 -2 0 5 -7 12 -15 16 -8
3 -15 4 -15 2z"/>
<path d="M4361 5804 c0 -11 3 -14 6 -6 3 7 2 16 -1 19 -3 4 -6 -2 -5 -13z"/>
<path d="M3000 5884 c0 -3 9 -17 20 -31 11 -14 20 -20 20 -12 -1 23 -40 66
-40 43z"/>
<path d="M2800 5450 c0 -5 5 -10 10 -10 6 0 10 5 10 10 0 6 -4 10 -10 10 -5 0
-10 -4 -10 -10z"/>
<path d="M3007 5094 c-4 -4 -7 -14 -7 -23 0 -11 3 -12 11 -4 6 6 10 16 7 23
-2 6 -7 8 -11 4z"/>
<path d="M2805 4909 c-4 -6 -5 -13 -2 -16 7 -7 27 6 27 18 0 12 -17 12 -25 -2z"/>
<path d="M7080 1948 c0 -2 -2 -35 -3 -73 -3 -85 -26 -130 -83 -162 -21 -13
-56 -23 -76 -23 -77 0 -138 -48 -138 -109 1 -52 22 -76 68 -74 59 2 92 19 92
47 0 33 19 73 37 80 37 14 143 -71 143 -114 0 -30 21 -36 41 -11 21 25 26 71
34 284 l6 157 -61 0 c-33 0 -60 -1 -60 -2z"/>
<path d="M3796 1893 c-3 -21 -6 -93 -6 -160 0 -123 0 -123 24 -123 37 0 123
31 146 52 18 17 20 31 20 143 l0 125 -89 0 -88 0 -7 -37z"/>
<path d="M6347 1699 c-59 -14 -107 -55 -107 -92 l0 -30 59 6 c32 3 72 11 87
19 25 11 29 20 32 61 3 52 2 53 -71 36z"/>
<path d="M4546 1679 c-76 -12 -145 -74 -131 -118 8 -26 49 -28 121 -6 69 21
76 28 80 73 4 51 -9 60 -70 51z"/>
<path d="M1535 927 c23 -19 45 -22 45 -7 0 6 -6 10 -14 10 -8 0 -23 3 -33 6
-16 6 -16 5 2 -9z"/>
<path d="M1608 913 c7 -3 16 -2 19 1 4 3 -2 6 -13 5 -11 0 -14 -3 -6 -6z"/>
<path d="M880 2440 c0 -5 6 -10 13 -10 8 0 7 -4 -3 -11 -12 -8 -10 -9 10 -5
14 3 30 6 35 6 9 0 -42 30 -51 30 -2 0 -4 -4 -4 -10z"/>
<path d="M1207 1706 c-4 -10 -1 -13 9 -9 7 3 14 9 14 14 0 14 -17 10 -23 -5z"/>
<path d="M1168 1703 c7 -3 16 -2 19 1 4 3 -2 6 -13 5 -11 0 -14 -3 -6 -6z"/>
<path d="M1225 1680 c-4 -6 3 -10 14 -10 25 0 27 6 6 13 -8 4 -17 2 -20 -3z"/>
<path d="M1396 1271 c-4 -5 -2 -12 3 -15 5 -4 12 -2 15 3 4 5 2 12 -3 15 -5 4
-12 2 -15 -3z"/>
<path d="M1352 1248 c8 -7 20 -22 26 -33 11 -19 11 -19 12 2 0 12 -9 27 -19
33 -27 14 -38 13 -19 -2z"/>
<path d="M1891 1949 c-34 -33 -40 -63 -15 -73 27 -10 43 -7 64 14 26 26 26 66
1 80 -16 8 -25 4 -50 -21z"/>
<path d="M2610 1810 c0 -116 -13 -170 -48 -196 -10 -8 -45 -13 -88 -14 -56 0
-74 -4 -87 -18 -27 -30 -21 -67 15 -97 32 -27 36 -27 120 -22 67 4 100 12 145
34 l58 28 8 184 c5 101 6 190 3 197 -4 10 -23 14 -66 14 l-60 0 0 -110z"/>
</g>
</svg>
